<svg width="36" height="36" viewBox="0 0 36 36" xmlns="http://www.w3.org/2000/svg">
<path d="M17.436 10.833C16.122 10.833 14.088 9.33902 11.946 9.39302C9.12 9.42902 6.528 11.031 5.07 13.569C2.136 18.663 4.314 26.187 7.176 30.327C8.58 32.343 10.236 34.611 12.432 34.539C14.538 34.449 15.33 33.171 17.886 33.171C20.424 33.171 21.144 34.539 23.376 34.485C25.644 34.449 27.084 32.433 28.47 30.399C30.072 28.059 30.738 25.791 30.774 25.665C30.72 25.647 26.364 23.973 26.31 18.933C26.274 14.721 29.748 12.705 29.91 12.615C27.93 9.71702 24.888 9.39302 23.826 9.32102C21.054 9.10502 18.732 10.833 17.436 10.833ZM22.116 6.58502C23.286 5.18102 24.06 3.21902 23.844 1.27502C22.17 1.34702 20.154 2.39102 18.948 3.79502C17.868 5.03702 16.932 7.03502 17.184 8.94302C19.038 9.08702 20.946 7.98902 22.116 6.58502Z"/>
</svg>
