<svg width="32" height="32" viewBox="0 0 32 32" xmlns="http://www.w3.org/2000/svg">
<path d="M22.6667 4.00001H28C28.3536 4.00001 28.6928 4.14049 28.9428 4.39053C29.1929 4.64058 29.3333 4.97972 29.3333 5.33334V26.6667C29.3333 27.0203 29.1929 27.3594 28.9428 27.6095C28.6928 27.8595 28.3536 28 28 28H4.00001C3.64638 28 3.30724 27.8595 3.0572 27.6095C2.80715 27.3594 2.66667 27.0203 2.66667 26.6667V5.33334C2.66667 4.97972 2.80715 4.64058 3.0572 4.39053C3.30724 4.14049 3.64638 4.00001 4.00001 4.00001H9.33334V1.33334H12V4.00001H20V1.33334H22.6667V4.00001ZM26.6667 14.6667H5.33334V25.3333H26.6667V14.6667ZM20 6.66668H12V9.33334H9.33334V6.66668H5.33334V12H26.6667V6.66668H22.6667V9.33334H20V6.66668ZM8.00001 17.3333H10.6667V20H8.00001V17.3333ZM14.6667 17.3333H17.3333V20H14.6667V17.3333ZM21.3333 17.3333H24V20H21.3333V17.3333Z"/>
</svg>
