<svg width="32" height="32" viewBox="0 0 32 32" xmlns="http://www.w3.org/2000/svg">
<path d="M8.00001 2.66663H24C24.3536 2.66663 24.6928 2.8071 24.9428 3.05715C25.1929 3.3072 25.3333 3.64634 25.3333 3.99996V28C25.3333 28.3536 25.1929 28.6927 24.9428 28.9428C24.6928 29.1928 24.3536 29.3333 24 29.3333H8.00001C7.64638 29.3333 7.30724 29.1928 7.0572 28.9428C6.80715 28.6927 6.66667 28.3536 6.66667 28V3.99996C6.66667 3.64634 6.80715 3.3072 7.0572 3.05715C7.30724 2.8071 7.64638 2.66663 8.00001 2.66663ZM16 22.6666C15.6464 22.6666 15.3072 22.8071 15.0572 23.0571C14.8071 23.3072 14.6667 23.6463 14.6667 24C14.6667 24.3536 14.8071 24.6927 15.0572 24.9428C15.3072 25.1928 15.6464 25.3333 16 25.3333C16.3536 25.3333 16.6928 25.1928 16.9428 24.9428C17.1929 24.6927 17.3333 24.3536 17.3333 24C17.3333 23.6463 17.1929 23.3072 16.9428 23.0571C16.6928 22.8071 16.3536 22.6666 16 22.6666Z"/>
</svg>
