<svg width="32" height="32" viewBox="0 0 32 32" xmlns="http://www.w3.org/2000/svg">
<path d="M16 24C13.8783 24 11.8434 23.1571 10.3431 21.6568C8.84285 20.1566 7.99999 18.1217 7.99999 16C7.99999 13.8783 8.84285 11.8434 10.3431 10.3431C11.8434 8.84285 13.8783 7.99999 16 7.99999C18.1217 7.99999 20.1566 8.84285 21.6568 10.3431C23.1571 11.8434 24 13.8783 24 16C24 18.1217 23.1571 20.1566 21.6568 21.6568C20.1566 23.1571 18.1217 24 16 24ZM16 21.3333C17.4145 21.3333 18.771 20.7714 19.7712 19.7712C20.7714 18.771 21.3333 17.4145 21.3333 16C21.3333 14.5855 20.7714 13.229 19.7712 12.2288C18.771 11.2286 17.4145 10.6667 16 10.6667C14.5855 10.6667 13.229 11.2286 12.2288 12.2288C11.2286 13.229 10.6667 14.5855 10.6667 16C10.6667 17.4145 11.2286 18.771 12.2288 19.7712C13.229 20.7714 14.5855 21.3333 16 21.3333ZM14.6667 1.33333H17.3333V5.33333H14.6667V1.33333ZM14.6667 26.6667H17.3333V30.6667H14.6667V26.6667ZM4.68666 6.57199L6.57199 4.68666L9.39999 7.51466L7.51466 9.39999L4.68666 6.57333V6.57199ZM22.6 24.4853L24.4853 22.6L27.3133 25.428L25.428 27.3133L22.6 24.4853ZM25.428 4.68533L27.3133 6.57199L24.4853 9.39999L22.6 7.51466L25.428 4.68666V4.68533ZM7.51466 22.6L9.39999 24.4853L6.57199 27.3133L4.68666 25.428L7.51466 22.6ZM30.6667 14.6667V17.3333H26.6667V14.6667H30.6667ZM5.33333 14.6667V17.3333H1.33333V14.6667H5.33333Z"/>
</svg>
