<svg width="345" height="14" viewBox="0 0 345 14" fill="none" xmlns="http://www.w3.org/2000/svg">
<path d="M6.70056 1.27124e-09L13.4012 7L6.70056 14L0 6.92776L6.70056 1.27124e-09Z" fill="white"/>
<path d="M19.9 4.26823e-10L26.6007 7L19.9 14L13.1993 7L19.9 4.26823e-10Z" fill="white"/>
<path d="M33.1666 4.26823e-10L39.8672 7L33.1666 14L26.4659 7L33.1666 4.26823e-10Z" fill="white"/>
<path d="M46.4332 4.26823e-10L53.1338 7L46.4332 14L39.7325 7L46.4332 4.26823e-10Z" fill="white"/>
<path d="M59.7 4.26823e-10L66.4007 7L59.7 14L52.9993 7L59.7 4.26823e-10Z" fill="white"/>
<path d="M72.9666 4.26823e-10L79.6673 7L72.9666 14L66.2659 7L72.9666 4.26823e-10Z" fill="white"/>
<path d="M86.2332 4.26823e-10L92.9338 7L86.2332 14L79.5325 7L86.2332 4.26823e-10Z" fill="white"/>
<path d="M99.4998 4.26823e-10L106.2 7L99.4998 14L92.7991 7L99.4998 4.26823e-10Z" fill="white"/>
<path d="M112.766 4.26823e-10L119.467 7L112.766 14L106.066 7L112.766 4.26823e-10Z" fill="white"/>
<path d="M126.033 4.26823e-10L132.734 7L126.033 14L119.332 7L126.033 4.26823e-10Z" fill="white"/>
<path d="M139.3 4.26823e-10L146 7L139.3 14L132.599 7L139.3 4.26823e-10Z" fill="white"/>
<path d="M152.566 4.26823e-10L159.267 7L152.566 14L145.866 7L152.566 4.26823e-10Z" fill="white"/>
<path d="M165.833 4.26823e-10L172.534 7L165.833 14L159.132 7L165.833 4.26823e-10Z" fill="white"/>
<path d="M179.1 4.26823e-10L185.8 7L179.1 14L172.399 7L179.1 4.26823e-10Z" fill="white"/>
<path d="M192.366 4.26823e-10L199.067 7L192.366 14L185.666 7L192.366 4.26823e-10Z" fill="white"/>
<path d="M205.633 4.26823e-10L212.334 7L205.633 14L198.932 7L205.633 4.26823e-10Z" fill="white"/>
<path d="M218.9 4.26823e-10L225.6 7L218.9 14L212.199 7L218.9 4.26823e-10Z" fill="white"/>
<path d="M232.166 4.26823e-10L238.867 7L232.166 14L225.466 7L232.166 4.26823e-10Z" fill="white"/>
<path d="M245.433 4.26823e-10L252.134 7L245.433 14L238.732 7L245.433 4.26823e-10Z" fill="white"/>
<path d="M258.699 4.26823e-10L265.4 7L258.699 14L251.999 7L258.699 4.26823e-10Z" fill="white"/>
<path d="M271.966 4.26823e-10L278.667 7L271.966 14L265.265 7L271.966 4.26823e-10Z" fill="white"/>
<path d="M285.233 4.26823e-10L291.934 7L285.233 14L278.532 7L285.233 4.26823e-10Z" fill="white"/>
<path d="M298.5 4.26823e-10L305.2 7L298.5 14L291.799 7L298.5 4.26823e-10Z" fill="white"/>
<path d="M311.766 4.26823e-10L318.467 7L311.766 14L305.065 7L311.766 4.26823e-10Z" fill="white"/>
<path d="M325.033 4.26823e-10L331.733 7L325.033 14L318.332 7L325.033 4.26823e-10Z" fill="white"/>
<path d="M338.299 0L345 6.92782L338.299 14L331.599 7L338.299 0Z" fill="white"/>
</svg>
