<svg width="27" height="27" viewBox="0 0 27 27" xmlns="http://www.w3.org/2000/svg">
<path d="M17.1059 2.42951C16.7911 2.11371 16.2517 2.33661 16.2517 2.78247V6.83057C16.2517 7.10672 16.4756 7.33057 16.7517 7.33057H20.7863C21.2314 7.33057 21.4547 6.79283 21.1405 6.47761L17.1059 2.42951Z"/>
<path d="M6.36401 1.16113H13.022C14.1265 1.16113 15.022 2.05656 15.022 3.16113V7.56436C15.022 8.11664 15.4697 8.56436 16.022 8.56436H20.4005C21.5051 8.56436 22.4005 9.45979 22.4005 10.5644V23.8386C22.4005 24.9431 21.5051 25.8386 20.4005 25.8386H6.36401C5.25944 25.8386 4.36401 24.9431 4.36401 23.8386V3.16113C4.36401 2.05656 5.25944 1.16113 6.36401 1.16113Z"/>
</svg>
