<svg width="6" height="10" viewBox="0 0 6 10" xmlns="http://www.w3.org/2000/svg">
<path d="M5.28019 1.78025C5.41681 1.6388 5.4924 1.44935 5.49069 1.2527C5.48899 1.05605 5.41011 0.867942 5.27105 0.728886C5.132 0.58983 4.94389 0.510954 4.74724 0.509245C4.55059 0.507536 4.36114 0.583132 4.21969 0.719751L0.999188 3.94025C0.413438 4.526 0.411938 5.4725 0.999188 6.05975L4.21969 9.28025C4.36114 9.41687 4.55059 9.49246 4.74724 9.49076C4.94389 9.48905 5.132 9.41017 5.27105 9.27111C5.41011 9.13206 5.48899 8.94395 5.49069 8.7473C5.4924 8.55065 5.41681 8.3612 5.28019 8.21975L2.06044 5L5.28019 1.78025Z"/>
</svg>
