<svg width="6" height="10" viewBox="0 0 6 10" xmlns="http://www.w3.org/2000/svg">
<path d="M0.719811 8.21976C0.583193 8.36122 0.507597 8.55067 0.509306 8.74732C0.511015 8.94396 0.589891 9.13207 0.728947 9.27113C0.868003 9.41018 1.05611 9.48906 1.25276 9.49077C1.44941 9.49248 1.63886 9.41688 1.78031 9.28026L5.00081 6.05976C5.58656 5.47401 5.58806 4.52751 5.00081 3.94026L1.78031 0.719764C1.63886 0.583145 1.44941 0.507549 1.25276 0.509258C1.05611 0.510967 0.868003 0.589845 0.728947 0.728901C0.589891 0.867956 0.511015 1.05607 0.509306 1.25271C0.507597 1.44936 0.583193 1.63881 0.719811 1.78026L3.93956 5.00001L0.719811 8.21976Z"/>
</svg>
