<svg  xmlns="http://www.w3.org/2000/svg" xmlns:xlink="http://www.w3.org/1999/xlink" x="0px" y="0px"
	 viewBox="0 0 13 7" style="enable-background:new 0 0 13 7;" xml:space="preserve">
<path d="M12.2,0.6c-0.2-0.2-0.5-0.2-0.7,0l-4,4.6L5.7,3.8l2.2-2.5c0.2-0.2,0.2-0.5,0-0.7c-0.2-0.2-0.5-0.2-0.7,0l-4,4.6
	L1.3,3.7C1.1,3.6,0.8,3.6,0.6,3.8C0.4,4,0.5,4.3,0.7,4.5l2.2,1.9c0.1,0.1,0.2,0.1,0.3,0.1c0.1,0,0.3-0.1,0.4-0.2l1.5-1.8l2.1,1.8
	c0.1,0.1,0.2,0.1,0.3,0.1c0.1,0,0.3-0.1,0.4-0.2l4.3-5C12.4,1.1,12.4,0.8,12.2,0.6z"/>
</svg>
