<svg xmlns="http://www.w3.org/2000/svg" xmlns:xlink="http://www.w3.org/1999/xlink" x="0px" y="0px"
	 viewBox="0 0 28 28" style="enable-background:new 0 0 28 28;" xml:space="preserve">
<path d="M14,26C7.4,26,2,20.6,2,14S7.4,2,14,2s12,5.4,12,12S20.6,26,14,26z M14,4.5c-5.2,0-9.5,4.3-9.5,9.5s4.3,9.5,9.5,9.5
	s9.5-4.3,9.5-9.5S19.2,4.5,14,4.5z"/>
<path d="M14,19.6c-2.3,0-4.4-1.3-5.5-3.4c-0.3-0.6-0.1-1.4,0.6-1.7c0.6-0.3,1.4-0.1,1.7,0.6c0.6,1.3,1.9,2,3.2,2
	c1.4,0,2.6-0.8,3.2-2c0.3-0.6,1.1-0.9,1.7-0.6c0.6,0.3,0.9,1.1,0.6,1.7C18.4,18.3,16.3,19.6,14,19.6z"/>
<circle cx="10.7" cy="10.7" r="1.1"/>
<circle cx="17.3" cy="10.7" r="1.1"/>
</svg>
