<svg width="12" height="12" viewBox="0 0 12 12" xmlns="http://www.w3.org/2000/svg">
<path fill-rule="evenodd" clip-rule="evenodd" d="M5.99994 10L3.27702 11.4315C2.95112 11.6029 2.54804 11.4776 2.3767 11.1517C2.30848 11.0219 2.28494 10.8733 2.30972 10.7288L2.82975 7.69674L0.626863 5.54945C0.363207 5.29245 0.357812 4.87038 0.614813 4.60672C0.717152 4.50173 0.851247 4.43341 0.996339 4.41233L4.04066 3.96996L5.40212 1.21134C5.56506 0.881172 5.96482 0.745612 6.29498 0.90856C6.42646 0.973447 6.53288 1.07987 6.59776 1.21134L7.95922 3.96996L11.0035 4.41233C11.3679 4.46527 11.6204 4.80357 11.5674 5.16793C11.5463 5.31302 11.478 5.44712 11.373 5.54945L9.17013 7.69674L9.69016 10.7288C9.7524 11.0916 9.50868 11.4363 9.14578 11.4985C9.00128 11.5233 8.85263 11.4998 8.72286 11.4315L5.99994 10Z"/>
</svg>
