<svg width="20" height="20" viewBox="0 0 20 20" xmlns="http://www.w3.org/2000/svg">
<path d="M5.31834 4.97331C6.64646 3.9092 8.29817 3.3306 10 3.33331C11.7708 3.33331 13.3983 3.94665 14.6817 4.97331L15.8925 3.76248L17.0708 4.94081L15.86 6.15165C16.7414 7.2551 17.2934 8.585 17.4523 9.9883C17.6113 11.3916 17.3708 12.8113 16.7586 14.0839C16.1463 15.3566 15.1872 16.4305 13.9915 17.1821C12.7959 17.9338 11.4123 18.3325 10 18.3325C8.58773 18.3325 7.20415 17.9338 6.0085 17.1821C4.81284 16.4305 3.85369 15.3566 3.24144 14.0839C2.62918 12.8113 2.3887 11.3916 2.54767 9.9883C2.70663 8.585 3.25858 7.2551 4.14 6.15165L2.92917 4.94165L4.1075 3.76331L5.31834 4.97415V4.97331ZM10 16.6666C10.766 16.6666 11.5246 16.5158 12.2323 16.2226C12.9401 15.9295 13.5831 15.4998 14.1248 14.9581C14.6665 14.4164 15.0961 13.7734 15.3893 13.0656C15.6825 12.3579 15.8333 11.5994 15.8333 10.8333C15.8333 10.0673 15.6825 9.30873 15.3893 8.60099C15.0961 7.89326 14.6665 7.2502 14.1248 6.70852C13.5831 6.16685 12.9401 5.73717 12.2323 5.44402C11.5246 5.15086 10.766 4.99998 10 4.99998C8.45291 4.99998 6.96918 5.61456 5.87521 6.70852C4.78125 7.80249 4.16667 9.28622 4.16667 10.8333C4.16667 12.3804 4.78125 13.8641 5.87521 14.9581C6.96918 16.0521 8.45291 16.6666 10 16.6666ZM10.8333 9.99998H13.3333L9.16667 15.4166V11.6666H6.66667L10.8333 6.24581V9.99998ZM6.66667 0.833313H13.3333V2.49998H6.66667V0.833313Z"/>
</svg>
