<svg width="20" height="20" viewBox="0 0 20 20" xmlns="http://www.w3.org/2000/svg">
<path d="M18.3332 5.83333H19.1665V14.1667H18.3332V16.6667C18.3332 16.8877 18.2454 17.0996 18.0891 17.2559C17.9328 17.4122 17.7208 17.5 17.4998 17.5H2.49984C2.27882 17.5 2.06686 17.4122 1.91058 17.2559C1.7543 17.0996 1.6665 16.8877 1.6665 16.6667V3.33333C1.6665 3.11232 1.7543 2.90036 1.91058 2.74408C2.06686 2.5878 2.27882 2.5 2.49984 2.5H17.4998C17.7208 2.5 17.9328 2.5878 18.0891 2.74408C18.2454 2.90036 18.3332 3.11232 18.3332 3.33333V5.83333ZM16.6665 14.1667H11.6665C10.5614 14.1667 9.50163 13.7277 8.72023 12.9463C7.93882 12.1649 7.49984 11.1051 7.49984 10C7.49984 8.89493 7.93882 7.83512 8.72023 7.05372C9.50163 6.27232 10.5614 5.83333 11.6665 5.83333H16.6665V4.16667H3.33317V15.8333H16.6665V14.1667ZM17.4998 12.5V7.5H11.6665C11.0035 7.5 10.3676 7.76339 9.89874 8.23223C9.4299 8.70107 9.1665 9.33696 9.1665 10C9.1665 10.663 9.4299 11.2989 9.89874 11.7678C10.3676 12.2366 11.0035 12.5 11.6665 12.5H17.4998ZM11.6665 9.16667H14.1665V10.8333H11.6665V9.16667Z"/>
</svg>
